<?xml version="1.0" encoding="utf-8"?>
<!-- Generator: Adobe Illustrator 19.1.0, SVG Export Plug-In . SVG Version: 6.00 Build 0)  -->
<svg version="1.1" id="Capa_1" xmlns="http://www.w3.org/2000/svg" xmlns:xlink="http://www.w3.org/1999/xlink" x="0px" y="0px"
	 viewBox="-59.2 230.7 304.2 383.4" style="enable-background:new -59.2 230.7 304.2 383.4;" xml:space="preserve">
<style type="text/css">
	.st0{fill:#FFFFFF;}
</style>
<g>
	<path class="st0" d="M87.1,230.7c-47,1.3-94.3-0.7-140.6,11c-4.8,1.1-8.3,8.4-3.5,11.7c35.4,29.1,70,58.6,108.9,82.3
		c6.5,3.9,14.4-3.4,10.7-10.2c-7-12.9-13.2-26.3-18.1-39.9C131,312.8,232.7,340,228.9,451.2c-1.9,49.2-23.6,98.3-64.3,127.7
		c-43,30.6-96.6,24.2-143.3,7.1c-4.7-1.4-8,5.3-3.6,7.9c99.3,54.6,207.7-7,224.6-116.9c8.5-54.3-3-105.6-46.2-142.8
		c-38.6-33.2-92.3-48-141.4-61.4c13.3-8.2,25.8-17.9,36.7-28.7C96.7,239.3,94.3,230.3,87.1,230.7z M32.7,271.9
		c-2.2,3.2-1.2,6,1.4,8.1c0,0,0,0,0.4,0.8c0.1,10.3,2.4,19.9,5.4,29.1c-26.1-17.4-50.8-37.5-75-56.9c33.3-6.7,67-6.2,100.5-7.1
		C53.4,253.9,41.6,261.2,32.7,271.9z"/>
</g>
</svg>
