<?xml version="1.0" encoding="utf-8"?>
<!-- Generator: Adobe Illustrator 19.1.0, SVG Export Plug-In . SVG Version: 6.00 Build 0)  -->
<svg version="1.1" id="Capa_1" xmlns="http://www.w3.org/2000/svg" xmlns:xlink="http://www.w3.org/1999/xlink" x="0px" y="0px"
	 viewBox="11 -11.9 30.9 30.9" style="enable-background:new 11 -11.9 30.9 30.9;" xml:space="preserve">
<style type="text/css">
	.st0{fill:#CF1A3F;}
</style>
<g>
	<g>
		<path class="st0" d="M40.9,19H12c-0.5,0-0.9-0.4-0.9-0.9V8.4c0-0.5,0.4-0.9,0.9-0.9s0.9,0.4,0.9,0.9v8.9H40V8.4
			c0-0.5,0.4-0.9,0.9-0.9s0.9,0.4,0.9,0.9v9.7C41.8,18.6,41.4,19,40.9,19z"/>
	</g>
	<g>
		<g>
			<path class="st0" d="M26.4,11.4c-0.5,0-0.9-0.4-0.9-0.9V-11c0-0.5,0.4-0.9,0.9-0.9c0.5,0,0.9,0.4,0.9,0.9v21.5
				C27.3,11,26.9,11.4,26.4,11.4z"/>
		</g>
		<g>
			<path class="st0" d="M26.4,11.7c-0.2,0-0.5-0.1-0.6-0.3L15.1,0.4c-0.3-0.3-0.3-0.9,0-1.2c0.3-0.3,0.9-0.3,1.2,0L26.4,9.6
				L36.6-0.9c0.3-0.3,0.9-0.4,1.2,0c0.3,0.3,0.4,0.9,0,1.2L27.1,11.5C26.9,11.6,26.7,11.7,26.4,11.7z"/>
		</g>
	</g>
</g>
</svg>
