<?xml version="1.0" encoding="iso-8859-1"?>
<!-- Generator: Adobe Illustrator 19.1.0, SVG Export Plug-In . SVG Version: 6.00 Build 0)  -->
<svg version="1.1" id="Capa_1" xmlns="http://www.w3.org/2000/svg" xmlns:xlink="http://www.w3.org/1999/xlink" x="0px" y="0px"
	 viewBox="0 0 30.892 30.892" style="enable-background:new 0 0 30.892 30.892;" xml:space="preserve">
<g>
	<g>
		<path style="fill:#010002;" d="M29.875,30.892H1.017c-0.483,0-0.875-0.392-0.875-0.874V20.28c0-0.482,0.392-0.875,0.875-0.875
			s0.875,0.393,0.875,0.875v8.862H29V20.28c0-0.482,0.392-0.875,0.875-0.875s0.875,0.393,0.875,0.875v9.737
			C30.75,30.5,30.358,30.892,29.875,30.892z"/>
	</g>
	<g>
		<g>
			<path style="fill:#010002;" d="M15.446,23.275c-0.483,0-0.875-0.393-0.875-0.875V0.875C14.571,0.392,14.963,0,15.446,0
				c0.482,0,0.875,0.392,0.875,0.875V22.4C16.321,22.883,15.929,23.275,15.446,23.275z"/>
		</g>
		<g>
			<path style="fill:#010002;" d="M15.446,23.635c-0.237,0-0.464-0.097-0.629-0.267L4.055,12.246
				c-0.336-0.348-0.326-0.901,0.021-1.237c0.348-0.336,0.9-0.327,1.236,0.021l10.135,10.473L25.58,11.029
				c0.336-0.348,0.89-0.356,1.237-0.021c0.347,0.336,0.355,0.89,0.02,1.237L16.075,23.368
				C15.909,23.538,15.683,23.635,15.446,23.635z"/>
		</g>
	</g>
</g>
<g>
</g>
<g>
</g>
<g>
</g>
<g>
</g>
<g>
</g>
<g>
</g>
<g>
</g>
<g>
</g>
<g>
</g>
<g>
</g>
<g>
</g>
<g>
</g>
<g>
</g>
<g>
</g>
<g>
</g>
</svg>
