<?xml version="1.0" encoding="utf-8"?>
<!-- Generator: Adobe Illustrator 19.1.0, SVG Export Plug-In . SVG Version: 6.00 Build 0)  -->
<svg version="1.1" id="Capa_1" xmlns="http://www.w3.org/2000/svg" xmlns:xlink="http://www.w3.org/1999/xlink" x="0px" y="0px"
	 viewBox="-183 184.4 32.6 32.6" style="enable-background:new -183 184.4 32.6 32.6;" xml:space="preserve">
<style type="text/css">
	.st0{stroke:#000000;stroke-miterlimit:10;}
</style>
<g>
	<path class="st0" d="M-182.5,200.3h31.6c0.3,0,0.5,0.2,0.5,0.5s-0.2,0.5-0.5,0.5h-31.6c-0.3,0-0.5-0.2-0.5-0.5
		S-182.8,200.3-182.5,200.3z"/>
	<path class="st0" d="M-163.4,187.7c0.1,0,0.3,0,0.4,0.1l12.5,12.5c0.1,0.1,0.1,0.2,0.1,0.4c0,0.1-0.1,0.3-0.1,0.4l-12.5,12.5
		c-0.2,0.2-0.5,0.2-0.7,0s-0.2-0.5,0-0.7l12.2-12.2l-12.2-12.2c-0.2-0.2-0.2-0.5,0-0.7C-163.7,187.8-163.5,187.7-163.4,187.7z"/>
</g>
</svg>
