<?xml version="1.0" encoding="utf-8"?>
<!-- Generator: Adobe Illustrator 19.1.0, SVG Export Plug-In . SVG Version: 6.00 Build 0)  -->
<svg version="1.1" id="Calque_1" xmlns="http://www.w3.org/2000/svg" xmlns:xlink="http://www.w3.org/1999/xlink" x="0px" y="0px"
	 viewBox="0 0 68.9 49.4" style="enable-background:new 0 0 68.9 49.4;" xml:space="preserve">
<style type="text/css">
	.st0{fill:#FFFFFF;}
</style>
<g>
	<path class="st0" d="M16.5,0C7.4,0,0,7.4,0,16.5S7.4,33,16.5,33S33,25.6,33,16.5S25.6,0,16.5,0z M16.5,21.7c-2.9,0-5.2-2.3-5.2-5.2
		c0-2.9,2.3-5.2,5.2-5.2s5.2,2.3,5.2,5.2C21.7,19.4,19.4,21.7,16.5,21.7z"/>
	<path class="st0" d="M52.4,0c-9.1,0-16.5,7.4-16.5,16.5S43.3,33,52.4,33s16.5-7.4,16.5-16.5S61.5,0,52.4,0z M52.4,21.7
		c-2.9,0-5.2-2.3-5.2-5.2c0-2.9,2.3-5.2,5.2-5.2c2.9,0,5.2,2.3,5.2,5.2C57.6,19.4,55.3,21.7,52.4,21.7z"/>
	<g>
		<path class="st0" d="M8,42.9C22.9,48.3,45.3,54,59,43.3c2-1.6-0.8-4.3-2.8-2.8C43.9,50.1,22.3,43.9,9,39C6.6,38.2,5.6,42,8,42.9
			L8,42.9z"/>
	</g>
</g>
</svg>
