<?xml version="1.0" encoding="utf-8"?>
<!-- Generator: Adobe Illustrator 19.1.0, SVG Export Plug-In . SVG Version: 6.00 Build 0)  -->
<svg version="1.1" id="Calque_1" xmlns="http://www.w3.org/2000/svg" xmlns:xlink="http://www.w3.org/1999/xlink" x="0px" y="0px"
	 viewBox="0 0 46.2 44.1" style="enable-background:new 0 0 46.2 44.1;" xml:space="preserve">
<g>
	<path d="M21.8,1.1c0.7-1.5,1.9-1.5,2.7,0l4.9,10c0.7,1.5,2.7,2.9,4.3,3.1l11,1.6c1.6,0.2,2,1.4,0.8,2.5l-8,7.8
		c-1.2,1.2-1.9,3.4-1.6,5.1l1.9,11c0.3,1.6-0.7,2.3-2.1,1.6l-9.9-5.2c-1.5-0.8-3.9-0.8-5.3,0l-9.9,5.2c-1.5,0.8-2.4,0.1-2.1-1.6
		l1.9-11c0.3-1.6-0.5-3.9-1.6-5.1l-8-7.8c-1.2-1.2-0.8-2.3,0.8-2.5l11-1.6c1.6-0.2,3.6-1.6,4.3-3.1L21.8,1.1z"/>
</g>
</svg>
