<?xml version="1.0" encoding="utf-8"?>
<!-- Generator: Adobe Illustrator 19.1.0, SVG Export Plug-In . SVG Version: 6.00 Build 0)  -->
<svg version="1.1" id="Calque_1" xmlns="http://www.w3.org/2000/svg" xmlns:xlink="http://www.w3.org/1999/xlink" x="0px" y="0px"
	 viewBox="-790 791.3 417.8 418.7" style="enable-background:new -790 791.3 417.8 418.7;" xml:space="preserve">
<style type="text/css">
	.st0{fill:#333333;}
	.st1{enable-background:new    ;}
</style>
<g>
	<g>
		<path class="st0" d="M-557.3,896.9c-0.7-0.3-1.5-0.4-2.3-0.2c-0.8,0.2-1.5,0.6-2,1.3c-3.1,7.6-6.3,13.6-9.6,18s-5.6,6.8-6.9,7.1
			c-0.4,0.1-0.7-0.3-1.1-1c-0.4-0.8-0.7-1.7-1-2.8c-0.3-1.1-0.6-2.2-0.9-3.2c-0.3-1.1-0.5-1.9-0.7-2.6c-1.2-5.1-2-10.7-2.4-16.8
			c-0.4-6-0.6-11.8-0.4-17.2c1.4-0.9,3.5-1.9,6.2-3c2.7-1.1,5.4-2.3,8.1-3.4c2.7-1.2,5-2.3,6.9-3.4c1.9-1.1,2.8-2.1,2.6-3.1
			s-1-1.5-2.3-1.7c-1.3-0.2-2.8-0.1-4.6,0.1s-3.6,0.5-5.4,1c-1.8,0.4-3.4,0.8-4.7,1.1c-1.1,0.2-2.1,0.5-3.2,0.8
			c-1.1,0.3-2.2,0.6-3.4,0.8c-0.1-5.2-0.1-9.6,0-13.4c0.1-3.8,0.1-7,0.2-9.6c0.1-2.6,0.1-4.7,0.1-6.4c0-1.6-0.1-2.9-0.3-3.7
			c-0.4-1.6-1.5-2.2-3.4-1.8c-1.9,0.4-3.3,1.7-4.2,3.7c-0.9,2-1.5,4.2-1.9,6.7s-0.6,4.8-0.6,7.1s-0.1,4-0.2,5
			c-0.2,2.4-0.3,4.5-0.4,6.2s-0.4,3.3-0.8,4.8c-0.4,1.5-1,3-1.8,4.5c-0.8,1.5-2,3.2-3.5,5.1c-2.8,1.9-5.2,3.8-7.2,5.8
			s-2.8,3.8-2.4,5.4c0.4,1.7,1.3,2.4,2.7,2.1c0.9-0.2,2.3-0.8,4-1.9c1.7-1.1,4.6-2.5,8.7-4.3c0,3.6,0.1,7.2,0.3,10.7
			c0.2,3.5,0.6,7,1.1,10.7c0.2,1.9,0.4,3.8,0.7,5.9c0.3,2.1,0.7,4.2,1.2,6.3c0.4,1.6,0.9,3.4,1.7,5.4s1.8,3.8,3,5.4
			c1.2,1.6,2.6,3,4.1,4s3.3,1.3,5.3,0.8c2.1-0.5,4.3-1.8,6.4-4c2.1-2.2,4.1-4.8,6.1-7.8c1.9-3,3.7-6.4,5.3-10
			c1.6-3.6,2.9-7.1,3.9-10.3c0.4-0.9,0.6-1.6,0.4-2.1C-556.1,897.8-556.6,897.2-557.3,896.9z"/>
		<path class="st0" d="M-469.3,902.2c-1.8-25.1-3.5-50.1-5.3-75.2c-0.7-10-7.3-18.3-16.9-21c-1.1-0.3-2.2-0.5-3.4-0.5l0.4-10.4
			c-0.2-2.3-2.1-4-4.4-3.8l-28.1,2c-2.3,0.2-4,2.1-3.8,4.4l1.8,10.1c-5.8,0.4-19.8,2.6-19.7,3.9c-11.7-5.2-24.8-7.7-38.6-6.8
			c-15.7,1-30,6.3-41.8,14.5c-0.2-1.1-27.7-1.1-39.6-0.7c-6.2,0.2-11.6,0.8-16.7,4.8c-2.1,1.6-3.7,3.7-5,5.9
			c-3.5,4.5-4.3,10.1-4,15.6c1.8,26.2,3.7,52.4,5.5,78.5c0.3,4.2,0.5,8.3,2,12.3c2.9,7.9,12.5,15.8,21.5,14.1
			c4.8-0.9,9.6-1.9,14.5-2.8c0.9-0.1,1.9-0.3,2.8-0.4c6.1-0.7,21.9-2.1,23.4-1.5c1.6,0.6,38.4,38.4,50.3,37.6
			c12.6-0.9,45.5-46.6,47.5-48.1c2.8,0,38.4-1.8,39.3-1.9c10-0.5,16.5-9.3,18.5-18.5C-468.4,910.5-469,906.2-469.3,902.2z
			 M-521.6,929L-521.6,929c0.1,0,0.3,0,0.4,0C-521.4,929-521.5,929-521.6,929z M-555,944l-4.4,2.3c-34.5,10.5-74.9-8.3-86-43.3
			c-11.1-35,7.8-71.8,42.2-82.3c34.4-10.5,71.4,9.4,82.5,44.4C-510.7,896.5-527.1,930.1-555,944z"/>
	</g>
</g>
<ellipse class="st0" cx="-576" cy="1016.8" rx="23" ry="6"/>
<g class="st1">
	<path class="st0" d="M-778.9,1132.6c0.3-3.3,0.7-6.5,1.1-9.7s1-6.3,1.7-9.6c-3.6,0.8-6.2,1.5-7.8,2.1c-1.6,0.6-2.7,0.9-3.5,0.9
		c-1.2,0-1.8-0.8-1.8-2.4c0-1.5,1-2.9,2.9-4.3c2-1.4,4.2-2.6,6.9-3.7c1.6-1.4,2.9-2.7,3.8-3.8c0.9-1.2,1.7-2.4,2.3-3.6
		c0.6-1.3,1.1-2.6,1.5-4.1c0.4-1.5,0.9-3.3,1.5-5.4c0.3-0.9,0.7-2.4,1.1-4.4c0.5-2.1,1.1-4.1,1.8-6.2c0.8-2.1,1.7-4,2.8-5.6
		c1.1-1.6,2.5-2.4,4.1-2.4c1.6,0,2.4,0.8,2.4,2.3c0,0.8-0.2,1.9-0.5,3.4c-0.3,1.5-0.7,3.3-1.3,5.6c-0.6,2.3-1.2,5.1-2,8.5
		c-0.8,3.4-1.6,7.4-2.5,12c1,0,2,0,2.9-0.1c0.9,0,1.8-0.1,2.7-0.1c1.1,0,2.4,0,4,0c1.6,0,3.1,0.1,4.5,0.2c1.5,0.2,2.7,0.4,3.7,0.8
		c1,0.4,1.5,1.1,1.5,2s-0.9,1.7-2.6,2.3c-1.8,0.6-3.8,1.2-6.2,1.7c-2.4,0.5-4.7,1-7.2,1.4c-2.4,0.5-4.3,0.9-5.6,1.4
		c-1.1,4.8-2.1,10-2.9,15.4c-0.8,5.5-1.2,10.6-1.2,15.4c0,0.6,0,1.4,0.1,2.4c0,1,0.1,2,0.2,3.1c0,1.1,0.2,2,0.3,2.7s0.4,1.1,0.7,1.1
		c1.1,0,3.4-1.6,6.9-4.9c3.5-3.3,7.2-8,11.1-14.1c0.5-0.5,1.1-0.8,1.8-0.8c0.7,0,1.3,0.2,1.8,0.7c0.5,0.5,0.8,1,0.8,1.7
		c0,0.5-0.3,1.1-0.8,1.8c-1.4,2.7-3.1,5.5-5,8.4c-2,2.9-4,5.5-6.1,7.8c-2.1,2.3-4.2,4.2-6.3,5.7c-2.1,1.5-4.1,2.3-5.9,2.3
		c-1.7,0-3.1-0.6-4.1-1.8c-1.1-1.2-1.9-2.7-2.6-4.4c-0.7-1.7-1.1-3.5-1.4-5.4c-0.3-1.9-0.4-3.6-0.4-5.1c0-2,0.1-4,0.2-5.9
		C-779.2,1136.1-779.1,1134.3-778.9,1132.6z"/>
	<path class="st0" d="M-754.5,1145.7c-0.1,0-0.2,0-0.2,0.1c-0.1,0.1-0.2,0.1-0.4,0.1c-0.8,0-1.4-0.3-1.9-0.8
		c-0.5-0.5-0.7-1.2-0.7-1.9c0-0.9,0.4-1.7,1.1-2.3c0.9-1.6,2.1-3.9,3.5-6.9c1.5-3,2.9-6.1,4.4-9.3c1.5-3.2,3-6.2,4.4-9.1
		c1.4-2.9,2.5-4.9,3.3-6.2c0.8-0.8,1.8-1.2,2.9-1.2c0.9,0,1.9,0.3,3,0.9c2,2.7,3.7,5,5.1,7c1.4,2,2.6,3.8,3.5,5.4s1.6,3.3,2,4.8
		c0.4,1.6,0.6,3.2,0.6,5c0,2.2-0.3,4.7-0.8,7.4c-0.6,2.7-1.2,6.2-2,10.4c2.4-0.5,4.8-1.2,7.1-2.1c2.3-0.9,4.6-1.8,6.9-2.7
		c0.4-0.2,0.8-0.3,1.2-0.3c0.8,0,1.4,0.3,1.8,0.8c0.4,0.5,0.6,1.1,0.6,1.7c0,0.8-0.8,1.7-2.3,2.8c-1.5,1.1-3.3,2.1-5.3,3.2
		c-2.1,1.1-4.2,2.1-6.4,3.1c-2.2,1-4,1.7-5.3,2.2h-1.5c-1.8,0-3.2-0.9-4.3-2.6c-1.1-1.8-1.6-3.4-1.6-4.9c0-1.7,0.2-3.4,0.8-5.1
		c0.5-1.7,0.9-3.4,1.1-5.1c0.3-2.2,0.5-4.2,0.5-6c0-2.7-0.4-5.2-1.1-7.5c-0.7-2.3-1.9-4.8-3.6-7.5c-0.4,0.6-1,1.6-1.8,3.1
		c-0.8,1.5-1.7,3.1-2.6,5c-1,1.9-2,3.9-3.1,5.9c-1.1,2.1-2.2,4-3.2,5.8c-1.1,1.8-2.1,3.4-3,4.7
		C-752.9,1144.6-753.8,1145.4-754.5,1145.7z"/>
	<path class="st0" d="M-684.3,1119.8c0,0.3,0,0.6-0.1,0.8c-0.1,0.2-0.1,0.4-0.2,0.6c0.2,0,0.4,0,0.5-0.1c0.2,0,0.3-0.1,0.5-0.1
		c1.4,0,2.5,0.5,3.2,1.4c0.7,1,1.1,2.2,1.1,3.8c-0.3,1.3-0.7,3-1.3,5c-0.6,2-1.1,4.1-1.7,6.2c-0.6,2.2-1.1,4.3-1.6,6.4
		s-0.7,4-0.7,5.6c0,0.9,0.1,1.8,0.3,2.6c1.5-0.1,2.9-0.7,4.2-1.8c1.3-1.1,2.6-2.3,3.8-3.5c1.2-1.3,2.3-2.4,3.3-3.5
		c1-1.1,1.9-1.6,2.7-1.6c1.6,0,2.4,0.8,2.4,2.4c0,0.6-0.2,1.3-0.6,2c-0.5,0.5-1.3,1.5-2.5,2.9c-1.2,1.4-2.5,2.9-4,4.4
		c-1.5,1.5-3.2,2.9-5,4.1c-1.9,1.2-3.7,1.8-5.5,1.8c-1.4,0-2.6-0.4-3.5-1.3c-0.9-0.9-1.6-1.9-2-3.2c-0.5-1.3-0.8-2.7-0.9-4.1
		c-0.2-1.4-0.2-2.7-0.2-3.9c-0.6,0.6-1.4,1.3-2.3,2.1c-1,0.8-2,1.6-3.1,2.4c-1.1,0.8-2.2,1.5-3.3,2c-1.1,0.6-2.1,0.8-2.9,0.8
		c-2.6,0-4.7-0.9-6.3-2.6c-1.6-1.7-2.4-4.1-2.4-7.1c0-4.2,0.6-8.3,1.9-12.2c1.3-3.9,2.9-7.4,4.9-10.5c2-3.1,4.2-5.5,6.7-7.3
		c2.5-1.8,4.8-2.7,7.2-2.7c2.2,0,4,0.8,5.4,2.3c1.4,1.5,2.1,3.3,2.1,5.3V1119.8z M-703.6,1143.6c2.1-1.2,3.8-2.7,5.1-4.5
		c1.3-1.8,2.5-3.7,3.6-5.7c1.1-2,2.2-4,3.3-5.9c1.1-1.9,2.5-3.6,4.1-5c-1.1-0.4-1.7-1.2-1.7-2.4l-0.2-1.1l-3.5-1.2
		c-1.8,1.2-3.4,2.7-4.7,4.5s-2.5,3.8-3.4,5.9c-0.9,2.2-1.6,4.4-2,6.7c-0.5,2.3-0.7,4.6-0.7,6.8V1143.6z"/>
	<path class="st0" d="M-672,1116.5c-0.3-0.6-0.5-1.1-0.5-1.4c0-1.7,0.8-2.6,2.4-2.6c0.8,0,1.6,0.4,2.5,1.3c0.9,0.9,1.5,1.7,1.9,2.6
		c0.6,1.4,1,3.5,1.2,6.3c0.2,2.8,0.3,5.8,0.3,9c0,1.8,0,3.6,0,5.3c0,1.7-0.1,3.3-0.2,4.7c0.2,0.9,0.3,1.8,0.3,2.7s0,1.9,0.2,2.9
		c5.5-7.5,10.7-15.2,15.6-23c4.9-7.8,9.9-15.5,15-23.3c0.6-1,1.4-1.5,2.4-1.5c0.6,0,1.1,0.2,1.6,0.7c0.5,0.5,0.7,1,0.7,1.7
		c0,0.2,0,0.4-0.1,0.7c-0.1,0.3-0.1,0.5-0.1,0.7c-1.6,3.3-3.6,7.5-6,12.6c-2.4,5.1-5,10.3-7.8,15.6c-2.8,5.3-5.6,10.3-8.6,14.9
		c-3,4.6-5.8,8.1-8.5,10.5c-0.8,0.8-2,1.4-3.5,1.8c-1.6,0.4-2.6,0.6-3.1,0.6c-1.3,0-2.4-0.4-3.2-1.2c-0.8-0.8-1.4-1.8-1.9-3.1
		s-0.8-2.7-1-4.2c-0.2-1.6-0.3-3-0.3-4.4c0-4,0.3-8.1,1-12.2c0.7-4.1,1-7.8,1-11c0-1.4-0.1-2.7-0.3-3.8
		C-671.1,1118.2-671.5,1117.3-672,1116.5z"/>
	<path class="st0" d="M-606.6,1122.2c-1,2.1-2.1,4.2-3.2,6.3c-1.2,2.1-2.5,4.1-3.9,5.9c-1.5,1.8-3.1,3.4-4.8,4.7
		c-1.8,1.4-3.7,2.3-5.9,2.9c0,2.1,0.3,4.2,0.9,6.2c0.6,2.1,1.9,3.1,3.8,3.1c0.5,0,1,0,1.6-0.2c0.6-0.1,1.2-0.4,1.9-0.9
		c0.6-0.3,1.5-0.9,2.6-1.7c1.2-0.8,2.4-1.7,3.8-2.8c1.4-1.1,2.7-2.2,3.9-3.5c1.3-1.3,2.2-2.5,2.8-3.8c0.3-0.7,0.8-1.1,1.4-1.1
		c0.7,0,1.4,0.3,2,0.9c0.6,0.6,0.9,1.3,0.9,2.1c0,0.7-0.6,1.8-1.8,3.3s-2.6,3.1-4.1,4.7c-1.6,1.6-3.2,3.1-4.8,4.5
		c-1.7,1.4-2.9,2.3-3.8,2.7c-0.3,0.1-1.2,0.5-2.6,1.4c-1.5,0.8-2.7,1.2-3.7,1.2c-2.2,0-4.1-0.5-5.7-1.4c-1.6-0.9-2.9-2.1-4-3.6
		c-1.1-1.5-1.8-3.2-2.3-5.2c-0.5-2-0.8-4-0.8-6.1c-0.6-0.3-0.9-0.9-0.9-1.7c0-0.7,0.2-1.3,0.8-1.8c0-1.2,0-2.4,0.2-3.7
		c0.1-1.3,0.4-2.5,0.8-3.8c0.6-2.1,1.4-4.6,2.5-7.5c1.1-2.9,2.4-5.7,4-8.4c1.6-2.7,3.5-4.9,5.7-6.8c2.2-1.9,4.7-2.8,7.5-2.8
		c2.8,0,4.7,0.9,5.7,2.8c1,1.9,1.5,4,1.5,6.4c0,1.4-0.1,2.8-0.4,4.1C-605.7,1120.3-606.1,1121.4-606.6,1122.2z M-613.8,1115.9
		c-1,0.8-2,2-3,3.5c-1,1.6-1.9,3.2-2.7,5c-0.8,1.8-1.6,3.7-2.3,5.6c-0.7,1.9-1.3,3.7-1.7,5.3c1.2-1.1,2.7-3.2,4.5-6.3
		c0.4-0.7,0.9-1.6,1.5-2.6s1.2-2.2,1.7-3.5c0.5-1.3,1-2.5,1.4-3.7C-614,1118-613.8,1116.9-613.8,1115.9z"/>
	<path class="st0" d="M-566.9,1082.6c-0.7,3.5-1.9,7.7-3.5,12.6c-1.6,4.9-3.5,9.8-5.6,14.7c-2.2,4.9-4.6,9.6-7.3,13.9
		c-2.7,4.4-5.5,7.8-8.3,10.2c0.1,2.6,0.4,5.2,0.9,7.8c0.5,2.6,1.9,4.6,4.2,6.1c4.5-0.9,8.6-2.6,12.2-5c3.6-2.5,6.9-5.5,9.8-9.1
		c0.7-0.5,1.3-0.8,1.8-0.8c0.7,0,1.3,0.2,1.8,0.7c0.5,0.5,0.8,1.1,0.8,1.9c0,0.4-0.1,0.8-0.3,1.2c-1.3,1.9-3,3.9-5,6.1
		c-2,2.2-4.2,4.1-6.5,5.9c-2.4,1.8-4.8,3.3-7.3,4.4c-2.5,1.2-4.9,1.7-7.2,1.7c-4.2,0-7.6-2.3-10.1-6.9c-2.5-4.6-3.8-11.4-3.8-20.5
		c0-3.7,0.4-8.6,1.2-14.7c0.8-6.1,2.1-12.2,4-18.5c1.9-6.3,4.3-12.1,7.3-17.5s6.7-9.4,11.1-11.9c1.3-0.8,2.5-1.2,3.6-1.2
		c2.8,0,4.7,1.1,5.8,3.3c1.1,2.2,1.6,4.5,1.6,6.9c0,1.7-0.1,3.3-0.4,4.8C-566.3,1080.2-566.6,1081.5-566.9,1082.6z M-584.2,1092.7
		c-4.7,10.8-7.2,22.1-7.5,33.7c1.4-2,2.6-4.1,3.6-6.3c1-2.2,2-4.5,2.9-6.8c1-2.4,2.1-5.2,3.3-8.5c1.2-3.3,2.4-6.6,3.5-10.1
		c1.1-3.5,2-6.9,2.8-10.4s1.1-6.5,1.1-9.3c-2.3,2.5-4.2,5.3-5.6,8.4C-581.5,1086.5-582.9,1089.6-584.2,1092.7z"/>
	<path class="st0" d="M-554.8,1119.3c2-1.5,4.1-2.3,6.2-2.3c2.3,0,4,1,5.1,3c1.3-1.7,2.2-3,2.7-3.8c0.5-0.9,1.5-1.3,2.9-1.3
		c2.2,0,3.6,1.2,4.2,3.6c0,3-0.1,6-0.4,9c-0.3,3-0.4,6-0.4,9v0.5l1.1-1.1c0.4-0.4,1-1,1.8-1.7c0.8-0.7,1.7-1.4,2.6-2
		c1-0.7,1.9-1.2,2.9-1.7c1-0.5,2-0.7,2.9-0.7c0.7,0,1.1,0.3,1.1,0.8c0,1.4-0.7,2.7-2,4c-1.3,1.3-2.5,2.4-3.6,3.5
		c-1.1,1.1-2.2,2.2-3.2,3.4c-1.1,1.2-2.1,2.3-3.1,3.5c0.2,3.9,0.5,7.8,0.8,11.6c0.3,3.8,0.5,7.6,0.5,11.4c0,3.1-0.1,6.2-0.4,9.3
		c-0.3,3.1-0.7,6.4-1.3,9.8c-0.4,2.1-1.1,4.3-2.2,6.5c-1.1,2.2-2.4,4.2-3.9,6c-1.6,1.8-3.4,3.3-5.4,4.4c-2.1,1.1-4.3,1.7-6.7,1.7
		c-2.7,0-4.9-0.4-6.6-1.2c-1.7-0.8-3.1-1.8-4.1-3.1c-1-1.3-1.7-2.7-2.1-4.2c-0.4-1.6-0.6-3-0.6-4.4c0-1.3,0.1-2.6,0.3-3.9
		c0.2-1.3,0.4-2.7,0.6-4.1c0.5-2.7,1.5-5.7,2.9-9c1.4-3.3,3-6.6,4.9-9.9c1.9-3.3,3.8-6.5,5.9-9.5c2.1-3,4.1-5.7,6-8l2.1-2.7
		c-0.1-1.4-0.2-2.9-0.2-4.4c0-1.5,0-3,0-4.5v-3.9c-3.2,3.4-6.6,6.8-10.1,10.1c-3.5,3.3-7.4,5.8-11.7,7.4c-0.4,0.1-0.9,0.2-1.4,0.2
		c-1,0-1.9-0.4-2.7-1.2c-0.8-0.8-1.2-2.2-1.2-4.1c0-2.1,0.6-4.5,1.7-7.1c1.1-2.6,2.5-5.1,4.1-7.6c1.7-2.5,3.4-4.7,5.2-6.8
		C-557.8,1121.9-556.2,1120.3-554.8,1119.3z M-562.1,1139.8c1.8-1.6,4.2-3.8,7.2-6.5c3-2.8,5.6-5.6,8.1-8.5
		c-0.7-0.7-0.9-1.3-0.7-1.8c0.2-0.5,0.1-0.8-0.5-0.8c-1.7,0-3.3,0.7-4.7,2c-1.5,1.4-2.8,3-4,4.9c-1.2,1.9-2.3,3.9-3.2,5.9
		C-560.8,1137-561.6,1138.6-562.1,1139.8z M-542.5,1176.1c0.1-1.4,0.2-2.8,0.2-4.1c0-1.4,0.1-2.7,0.1-4.1c0-4-0.2-8.1-0.5-12.2
		c-2.5,3.5-4.7,7.2-6.6,11.1c-1.9,3.9-3.6,7.8-5.1,11.7c-0.2,0.4-0.5,1.1-0.8,2.1c-0.4,1-0.7,2.1-1.1,3.4c-0.4,1.3-0.7,2.6-1,3.9
		c-0.3,1.4-0.5,2.6-0.5,3.8c0,1.4,0.3,2.6,0.9,3.5c0.6,0.9,1.7,1.4,3.2,1.4c2.4,0,4.3-0.8,5.7-2.3c1.4-1.5,2.5-3.3,3.2-5.4
		c0.8-2.1,1.3-4.3,1.5-6.7C-542.9,1179.8-542.7,1177.8-542.5,1176.1z"/>
	<path class="st0" d="M-525.8,1145.7c-0.1,0-0.2,0-0.2,0.1c-0.1,0.1-0.2,0.1-0.4,0.1c-0.8,0-1.4-0.3-1.9-0.8
		c-0.5-0.5-0.7-1.2-0.7-1.9c0-0.9,0.4-1.7,1.1-2.3c0.9-1.6,2.1-3.9,3.5-6.9c1.5-3,2.9-6.1,4.4-9.3c1.5-3.2,3-6.2,4.4-9.1
		c1.4-2.9,2.5-4.9,3.3-6.2c0.8-0.8,1.8-1.2,2.9-1.2c0.9,0,1.9,0.3,3,0.9c2,2.7,3.7,5,5.1,7c1.4,2,2.6,3.8,3.5,5.4s1.6,3.3,2,4.8
		c0.4,1.6,0.6,3.2,0.6,5c0,2.2-0.3,4.7-0.8,7.4c-0.6,2.7-1.2,6.2-2,10.4c2.4-0.5,4.8-1.2,7.1-2.1c2.3-0.9,4.6-1.8,6.9-2.7
		c0.4-0.2,0.8-0.3,1.2-0.3c0.8,0,1.4,0.3,1.8,0.8c0.4,0.5,0.6,1.1,0.6,1.7c0,0.8-0.8,1.7-2.3,2.8s-3.3,2.1-5.3,3.2
		c-2.1,1.1-4.2,2.1-6.4,3.1c-2.2,1-4,1.7-5.3,2.2h-1.5c-1.8,0-3.2-0.9-4.3-2.6c-1.1-1.8-1.6-3.4-1.6-4.9c0-1.7,0.2-3.4,0.8-5.1
		c0.5-1.7,0.9-3.4,1.1-5.1c0.3-2.2,0.5-4.2,0.5-6c0-2.7-0.4-5.2-1.1-7.5c-0.7-2.3-1.9-4.8-3.6-7.5c-0.4,0.6-1,1.6-1.8,3.1
		c-0.8,1.5-1.7,3.1-2.6,5c-1,1.9-2,3.9-3.1,5.9c-1.1,2.1-2.2,4-3.2,5.8c-1.1,1.8-2.1,3.4-3,4.7
		C-524.2,1144.6-525.1,1145.4-525.8,1145.7z"/>
	<path class="st0" d="M-455.6,1119.8c0,0.3,0,0.6-0.1,0.8c-0.1,0.2-0.1,0.4-0.2,0.6c0.2,0,0.4,0,0.5-0.1c0.2,0,0.3-0.1,0.5-0.1
		c1.4,0,2.5,0.5,3.2,1.4c0.7,1,1.1,2.2,1.1,3.8c-0.3,1.3-0.7,3-1.3,5c-0.6,2-1.1,4.1-1.7,6.2c-0.6,2.2-1.1,4.3-1.6,6.4
		c-0.5,2.1-0.7,4-0.7,5.6c0,0.9,0.1,1.8,0.3,2.6c1.5-0.1,2.9-0.7,4.2-1.8c1.3-1.1,2.6-2.3,3.8-3.5c1.2-1.3,2.3-2.4,3.3-3.5
		c1-1.1,1.9-1.6,2.7-1.6c1.6,0,2.4,0.8,2.4,2.4c0,0.6-0.2,1.3-0.6,2c-0.5,0.5-1.3,1.5-2.5,2.9c-1.2,1.4-2.5,2.9-4,4.4
		c-1.5,1.5-3.2,2.9-5,4.1c-1.9,1.2-3.7,1.8-5.5,1.8c-1.4,0-2.6-0.4-3.5-1.3c-0.9-0.9-1.6-1.9-2-3.2c-0.5-1.3-0.8-2.7-0.9-4.1
		c-0.2-1.4-0.2-2.7-0.2-3.9c-0.6,0.6-1.4,1.3-2.3,2.1c-1,0.8-2,1.6-3.1,2.4c-1.1,0.8-2.2,1.5-3.3,2c-1.1,0.6-2.1,0.8-2.9,0.8
		c-2.6,0-4.7-0.9-6.3-2.6c-1.6-1.7-2.4-4.1-2.4-7.1c0-4.2,0.6-8.3,1.9-12.2c1.3-3.9,2.9-7.4,4.9-10.5c2-3.1,4.2-5.5,6.7-7.3
		c2.5-1.8,4.8-2.7,7.2-2.7c2.2,0,4,0.8,5.4,2.3c1.4,1.5,2.1,3.3,2.1,5.3V1119.8z M-474.9,1143.6c2.1-1.2,3.8-2.7,5.1-4.5
		c1.3-1.8,2.5-3.7,3.6-5.7c1.1-2,2.2-4,3.3-5.9c1.1-1.9,2.5-3.6,4.1-5c-1.1-0.4-1.7-1.2-1.7-2.4l-0.2-1.1l-3.5-1.2
		c-1.8,1.2-3.4,2.7-4.7,4.5c-1.4,1.8-2.5,3.8-3.4,5.9c-0.9,2.2-1.6,4.4-2,6.7c-0.5,2.3-0.7,4.6-0.7,6.8V1143.6z"/>
	<path class="st0" d="M-436.2,1121.9c1.3-2.7,2.3-4.6,3-5.6c0.7-1,1.3-1.5,1.7-1.5c0.5,0,0.9,0.6,1.3,1.7c0.4,1.2,0.5,2.3,0.5,3.4
		c0,2-0.3,4.3-0.9,6.8c-0.6,2.5-1.3,5.1-2,7.7c1.1-1.9,2.1-3.8,3-5.7c0.9-1.9,1.9-3.7,3-5.4c0.5-0.9,1.1-2,1.9-3.4
		c0.8-1.4,1.6-2.7,2.6-4.1c1-1.4,2-2.5,3.1-3.5c1.1-1,2.4-1.4,3.8-1.4c1.2,0,2.2,0.3,2.9,0.8c0.7,0.6,1.3,1.2,1.7,2
		c0.4,0.8,0.7,1.7,0.8,2.6c0.2,1,0.2,1.9,0.2,2.8c0,2.9-0.5,5.8-1.4,8.8c-0.9,3-1.5,5.8-1.7,8.5l7.5-12.3c1.2-1.6,2.6-2.5,4.2-2.7
		c0.9,0,1.7,0.3,2.5,0.9c0.8,0.6,1.3,1.6,1.6,2.9c0,1.7-0.1,3.8-0.4,6.3c-0.3,2.5-0.4,5-0.4,7.4c0,1.8,0.2,3.5,0.5,5.1
		c0.3,1.6,0.9,2.9,1.7,3.8c2-0.2,4-1.1,5.9-2.8s3.7-3.6,5.3-5.9c1.6-2.3,3-4.6,4.3-7c1.3-2.4,2.2-4.5,2.9-6.3c0.7-1,1.5-1.5,2.3-1.5
		c0.7,0,1.3,0.3,1.8,0.8c0.5,0.5,0.8,1.2,0.8,2.1c-1.8,5.5-4.1,10.3-6.9,14.5c-2.8,4.1-6.5,8.1-11,11.9c-0.6,0.5-1.3,1-2.2,1.4
		c-0.9,0.4-1.8,0.6-2.9,0.6c-1.9,0-3.5-0.5-4.7-1.5c-1.3-1-2.2-2.2-2.9-3.6c-0.7-1.4-1.2-2.9-1.6-4.6c-0.4-1.7-0.6-3.1-0.7-4.4
		c-1.4,2.3-3,4.4-4.7,6.4c-1.8,2-4,2.9-6.9,2.9c-1.4,0-2.5-0.4-3.3-1.1c-0.8-0.8-1.4-1.7-1.7-2.8c-0.4-1.1-0.6-2.3-0.7-3.5
		c-0.1-1.3-0.2-2.4-0.2-3.4c0-1,0-2,0.2-3c0.1-1,0.2-2,0.3-3c-0.9,1.7-2,3.8-3.3,6.4c-1.3,2.6-2.7,5-4.2,7.5
		c-1.5,2.4-3.1,4.5-4.7,6.2c-1.6,1.7-3.2,2.6-4.7,2.6c-1.2,0-2.2-0.5-3.1-1.5c-0.9-1-1.3-2.6-1.3-4.7c0-2.1,0.3-4.4,0.8-6.9
		c0.6-2.5,1.2-5,2-7.6c0.8-2.6,1.6-5,2.4-7.4C-437.4,1125.9-436.7,1123.8-436.2,1121.9z M-420.7,1125.6c-0.1,0.1-0.2,0.2-0.2,0.3
		v0.8l0.2-0.9V1125.6z"/>
</g>
</svg>
