<?xml version="1.0" encoding="utf-8"?>
<!-- Generator: Adobe Illustrator 19.1.0, SVG Export Plug-In . SVG Version: 6.00 Build 0)  -->
<svg version="1.1" id="Calque_1" xmlns="http://www.w3.org/2000/svg" xmlns:xlink="http://www.w3.org/1999/xlink" x="0px" y="0px"
	 viewBox="0 0 417.8 418.7" style="enable-background:new 0 0 417.8 418.7;" xml:space="preserve">
<style type="text/css">
	.st0{fill:#333333;}
	.st1{font-family:'CheddarJack';}
	.st2{font-size:150.5596px;}
</style>
<g>
	<g>
		<path class="st0" d="M232.7,105.6c-0.7-0.3-1.5-0.4-2.3-0.2c-0.8,0.2-1.5,0.6-2,1.3c-3.1,7.6-6.3,13.6-9.6,18
			c-3.3,4.4-5.6,6.8-6.9,7.1c-0.4,0.1-0.7-0.3-1.1-1c-0.4-0.8-0.7-1.7-1-2.8c-0.3-1.1-0.6-2.2-0.9-3.2c-0.3-1.1-0.5-1.9-0.7-2.6
			c-1.2-5.1-2-10.7-2.4-16.8c-0.4-6-0.6-11.8-0.4-17.2c1.4-0.9,3.5-1.9,6.2-3c2.7-1.1,5.4-2.3,8.1-3.4c2.7-1.2,5-2.3,6.9-3.4
			c1.9-1.1,2.8-2.1,2.6-3.1c-0.2-1-1-1.5-2.3-1.7c-1.3-0.2-2.8-0.1-4.6,0.1c-1.8,0.2-3.6,0.5-5.4,1c-1.8,0.4-3.4,0.8-4.7,1.1
			c-1.1,0.2-2.1,0.5-3.2,0.8c-1.1,0.3-2.2,0.6-3.4,0.8c-0.1-5.2-0.1-9.6,0-13.4c0.1-3.8,0.1-7,0.2-9.6c0.1-2.6,0.1-4.7,0.1-6.4
			c0-1.6-0.1-2.9-0.3-3.7c-0.4-1.6-1.5-2.2-3.4-1.8c-1.9,0.4-3.3,1.7-4.2,3.7c-0.9,2-1.5,4.2-1.9,6.7c-0.4,2.5-0.6,4.8-0.6,7.1
			c0,2.3-0.1,4-0.2,5c-0.2,2.4-0.3,4.5-0.4,6.2c-0.1,1.7-0.4,3.3-0.8,4.8c-0.4,1.5-1,3-1.8,4.5c-0.8,1.5-2,3.2-3.5,5.1
			c-2.8,1.9-5.2,3.8-7.2,5.8c-2,2-2.8,3.8-2.4,5.4c0.4,1.7,1.3,2.4,2.7,2.1c0.9-0.2,2.3-0.8,4-1.9c1.7-1.1,4.6-2.5,8.7-4.3
			c0,3.6,0.1,7.2,0.3,10.7c0.2,3.5,0.6,7,1.1,10.7c0.2,1.9,0.4,3.8,0.7,5.9c0.3,2.1,0.7,4.2,1.2,6.3c0.4,1.6,0.9,3.4,1.7,5.4
			c0.8,2,1.8,3.8,3,5.4c1.2,1.6,2.6,3,4.1,4c1.5,1,3.3,1.3,5.3,0.8c2.1-0.5,4.3-1.8,6.4-4c2.1-2.2,4.1-4.8,6.1-7.8
			c1.9-3,3.7-6.4,5.3-10c1.6-3.6,2.9-7.1,3.9-10.3c0.4-0.9,0.6-1.6,0.4-2.1C233.9,106.5,233.4,105.9,232.7,105.6z"/>
		<path class="st0" d="M320.7,110.9c-1.8-25.1-3.5-50.1-5.3-75.2c-0.7-10-7.3-18.3-16.9-21c-1.1-0.3-2.2-0.5-3.4-0.5l0.4-10.4
			c-0.2-2.3-2.1-4-4.4-3.8L263,2c-2.3,0.2-4,2.1-3.8,4.4l1.8,10.1c-5.8,0.4-19.8,2.6-19.7,3.9c-11.7-5.2-24.8-7.7-38.6-6.8
			c-15.7,1-30,6.3-41.8,14.5c-0.2-1.1-27.7-1.1-39.6-0.7c-6.2,0.2-11.6,0.8-16.7,4.8c-2.1,1.6-3.7,3.7-5,5.9
			c-3.5,4.5-4.3,10.1-4,15.6c1.8,26.2,3.7,52.4,5.5,78.5c0.3,4.2,0.5,8.3,2,12.3c2.9,7.9,12.5,15.8,21.5,14.1
			c4.8-0.9,9.6-1.9,14.5-2.8c0.9-0.1,1.9-0.3,2.8-0.4c6.1-0.7,21.9-2.1,23.4-1.5c1.6,0.6,38.4,38.4,50.3,37.6
			c12.6-0.9,45.5-46.6,47.5-48.1c2.8,0,38.4-1.8,39.3-1.9c10-0.5,16.5-9.3,18.5-18.5C321.6,119.2,321,114.9,320.7,110.9z
			 M268.4,137.7C268.4,137.7,268.4,137.7,268.4,137.7c0.1,0,0.3,0,0.4,0C268.6,137.7,268.5,137.7,268.4,137.7z M235,152.7l-4.4,2.3
			c-34.5,10.5-74.9-8.3-86-43.3c-11.1-35,7.8-71.8,42.2-82.3c34.4-10.5,71.4,9.4,82.5,44.4C279.3,105.2,262.9,138.8,235,152.7z"/>
	</g>
</g>
<ellipse class="st0" cx="214" cy="225.5" rx="23" ry="6"/>
<text transform="matrix(1 0 0 1 1.367424e-04 363.8475)" class="st0 st1 st2">travelgram</text>
</svg>
