<?xml version="1.0" encoding="utf-8"?>
<!-- Generator: Adobe Illustrator 19.1.0, SVG Export Plug-In . SVG Version: 6.00 Build 0)  -->
<svg version="1.1" id="Calque_1" xmlns="http://www.w3.org/2000/svg" xmlns:xlink="http://www.w3.org/1999/xlink" x="0px" y="0px"
	 viewBox="0 0 230.6 229.8" style="enable-background:new 0 0 230.6 229.8;" xml:space="preserve">
<style type="text/css">
	.st0{fill:#FFFFFF;}
</style>
<g>
	<path class="st0" d="M141.3,110c-0.7-0.3-1.5-0.3-2.3-0.1c-0.8,0.3-1.4,0.7-1.8,1.4c-2.5,7.8-5.2,14-8.1,18.7
		c-2.9,4.7-5,7.2-6.3,7.6c-0.4,0.1-0.7-0.2-1.2-0.9c-0.4-0.7-0.8-1.6-1.3-2.7c-0.4-1.1-0.8-2.1-1.2-3.2c-0.4-1-0.7-1.9-0.9-2.5
		c-1.6-5-2.9-10.5-3.7-16.5c-0.9-6-1.5-11.7-1.8-17.1c1.3-1,3.3-2.2,6-3.5c2.6-1.3,5.2-2.7,7.8-4.1c2.6-1.4,4.8-2.7,6.6-4
		c1.8-1.3,2.6-2.4,2.3-3.3c-0.3-0.9-1.1-1.4-2.4-1.5c-1.3-0.1-2.8,0.1-4.6,0.5c-1.7,0.4-3.5,0.8-5.3,1.4c-1.8,0.6-3.3,1-4.6,1.4
		c-1,0.3-2.1,0.7-3.1,1.1c-1,0.4-2.1,0.8-3.3,1.1c-0.5-5.1-0.9-9.6-1.1-13.4c-0.2-3.8-0.4-7-0.6-9.6c-0.1-2.6-0.3-4.7-0.4-6.4
		c-0.1-1.6-0.3-2.9-0.6-3.7c-0.5-1.6-1.7-2.1-3.5-1.5c-1.9,0.6-3.2,1.9-3.9,4c-0.7,2.1-1.2,4.3-1.4,6.8c-0.2,2.5-0.2,4.9,0,7.2
		c0.2,2.3,0.2,4,0.2,5c0,2.4,0,4.5,0.1,6.2c0,1.7-0.1,3.3-0.4,4.9c-0.3,1.5-0.8,3.1-1.4,4.6c-0.7,1.5-1.7,3.3-3.1,5.4
		c-2.7,2.1-4.9,4.2-6.7,6.3c-1.8,2.1-2.5,4-2,5.5c0.5,1.7,1.5,2.3,2.9,1.9c0.9-0.3,2.2-1,3.8-2.2c1.6-1.2,4.4-2.9,8.3-5
		c0.3,3.6,0.6,7.1,1.2,10.6c0.5,3.5,1.2,7,1.9,10.5c0.3,1.9,0.7,3.8,1.2,5.8c0.5,2,1,4.1,1.7,6.2c0.5,1.6,1.2,3.3,2.1,5.2
		c0.9,1.9,2.1,3.6,3.4,5.2c1.3,1.5,2.8,2.8,4.4,3.6c1.6,0.9,3.4,1,5.4,0.4c2.1-0.7,4.1-2.1,6.1-4.5c1.9-2.3,3.7-5.1,5.4-8.3
		c1.7-3.2,3.2-6.6,4.5-10.4c1.3-3.7,2.3-7.3,3-10.6c0.3-0.9,0.4-1.6,0.3-2.2C142.5,110.8,142.1,110.3,141.3,110z"/>
	<path class="st0" d="M229.4,108.3c-3.8-24.8-7.5-49.7-11.3-74.5c-1.5-9.9-8.7-17.7-18.5-19.6c-1.1-0.2-2.2-0.3-3.4-0.3l-0.5-10.4
		c-0.3-2.3-2.4-3.8-4.7-3.5l-27.9,4.2c-2.3,0.3-3.8,2.5-3.5,4.7l2.6,10c-5.8,0.9-19.5,4.2-19.3,5.5c-12-4.2-25.4-5.7-39.1-3.7
		c-15.5,2.2-29.4,8.7-40.5,17.8c-0.3-1.1-27.7,1.1-39.5,2.5c-6.1,0.7-11.5,1.7-16.3,6.2c-1.9,1.8-3.4,3.9-4.5,6.3
		c-3.1,4.7-3.5,10.4-2.7,15.9c3.9,26,7.8,51.9,11.8,77.9c0.6,4.2,1.2,8.2,3,12.1c3.5,7.7,13.7,14.8,22.5,12.3
		c4.7-1.3,9.5-2.6,14.2-4c0.9-0.2,1.9-0.4,2.8-0.6c6-1.2,21.6-3.8,23.2-3.3s41.3,35.2,53.1,33.4c12.5-1.9,41.6-50.1,43.4-51.8
		c2.7-0.2,38.2-4.9,39.1-5c9.9-1.3,15.7-10.6,17-19.9C231,116.4,230,112.2,229.4,108.3z M179.4,139.1
		C179.5,139.1,179.5,139.1,179.4,139.1c0.1,0,0.3,0,0.4,0C179.7,139.1,179.6,139.1,179.4,139.1z M147.3,156.8l-4.2,2.6
		c-33.5,13.2-75.3-2.3-89.2-36.3c-13.9-34,2-72.2,35.5-85.4c33.5-13.2,71.9,3.6,85.8,37.6C187.7,105.8,174.1,140.6,147.3,156.8z"/>
</g>
<ellipse class="st0" cx="132.6" cy="224.3" rx="25.5" ry="5.5"/>
</svg>
